<svg contentscripttype="text/ecmascript" viewBox="0 0 1792 2048" xml:space="preserve" xmlns="http://www.w3.org/2000/svg"><path d="M1792 838v794c0 44-15.667 81.667-47 113s-69 47-113 47H160c-44 0-81.667-15.667-113-47s-47-69-47-113V838c29.333 32.667 63 61.667 101 87 241.333 164 407 279 497 345 38 28 68.833 49.833 92.5 65.5s55.167 31.667 94.5 48 76 24.5 110 24.5h2c34 0 70.667-8.167 110-24.5s70.833-32.333 94.5-48 54.5-37.5 92.5-65.5c113.333-82 279.333-197 498-345 38-26 71.333-55 100-87zm0-294c0 52.667-16.333 103-49 151s-73.333 89-122 123c-250.667 174-406.667 282.333-468 325-6.667 4.667-20.833 14.833-42.5 30.5s-39.667 28.333-54 38-31.667 20.5-52 32.5-39.5 21-57.5 27-34.667 9-50 9h-2c-15.333 0-32-3-50-9s-37.167-15-57.5-27-37.667-22.833-52-32.5-32.333-22.333-54-38-35.833-25.833-42.5-30.5c-60.667-42.667-148-103.5-262-182.5S194.667 834 172 818c-41.333-28-80.333-66.5-117-115.5S0 608 0 566c0-52 13.833-95.333 41.5-130s67.167-52 118.5-52h1472c43.333 0 80.833 15.667 112.5 47s47.5 69 47.5 113z" fill="#ffffff" class="fill-000000"></path></svg>