<svg contentscripttype="text/ecmascript" viewBox="0 0 1536 2048" xml:space="preserve" xmlns="http://www.w3.org/2000/svg"><path d="M349 753v991H19V753h330zm21-306c.667 48.667-16.167 89.333-50.5 122S240 618 184 618h-2c-54.667 0-98.667-16.333-132-49S0 495.667 0 447c0-49.333 17.167-90.167 51.5-122.5S130.667 276 186 276s99.667 16.167 133 48.5 50.333 73.167 51 122.5zm1166 729v568h-329v-530c0-70-13.5-124.833-40.5-164.5S1097.333 990 1040 990c-42 0-77.167 11.5-105.5 34.5S885 1076 871 1110c-7.333 20-11 47-11 81v553H531c1.333-266 2-481.667 2-647s-.333-264-1-296l-1-48h329v144h-2c13.333-21.333 27-40 41-56s32.833-33.333 56.5-52 52.667-33.167 87-43.5c34.333-10.333 72.5-15.5 114.5-15.5 114 0 205.667 37.833 275 113.5s104 186.5 104 332.5z" fill="#ffffff" class="fill-000000"></path></svg>