<svg width="123" height="123" viewBox="0 0 123 123" fill="none" xmlns="http://www.w3.org/2000/svg">
<path fill-rule="evenodd" clip-rule="evenodd" d="M61.5 112.923C89.9002 112.923 112.923 89.9002 112.923 61.5C112.923 33.0998 89.9002 10.0769 61.5 10.0769C33.0998 10.0769 10.0769 33.0998 10.0769 61.5C10.0769 70.6526 12.4595 79.2192 16.631 86.6442C18.0139 89.1056 18.5535 92.0469 17.9957 94.9709L15.3968 108.594L26.4987 105.193C29.8187 104.175 33.3089 104.641 36.1689 106.263C43.6371 110.5 52.2708 112.923 61.5 112.923ZM29.3677 114.558C30.0258 114.356 30.7369 114.443 31.3355 114.783C40.2387 119.834 50.5325 122.718 61.5 122.718C95.3097 122.718 122.718 95.3097 122.718 61.5C122.718 27.6903 95.3097 0.282047 61.5 0.282047C27.6903 0.282047 0.282047 27.6903 0.282047 61.5C0.282047 72.3762 3.11833 82.5899 8.0916 91.4419C8.38069 91.9564 8.48493 92.5556 8.37432 93.1354L3.49195 118.728C3.14638 120.539 4.85134 122.068 6.61454 121.528L29.3677 114.558Z" fill="url(#paint0_linear_1_90)"/>
<circle cx="39.4615" cy="54.1539" r="7.34615" fill="#8628B6"/>
<circle cx="83.5383" cy="54.1538" r="7.34615" fill="#8628B6"/>
<path d="M76.6409 71.2949C77.7454 71.2949 78.6529 72.1933 78.5243 73.2903C78.3408 74.856 77.9418 76.3921 77.3361 77.8544C76.4747 79.9341 75.2121 81.8237 73.6204 83.4154C72.0287 85.0071 70.1391 86.2697 68.0594 87.1311C65.9798 87.9925 63.7508 88.4359 61.4998 88.4359C59.2488 88.4359 57.0199 87.9925 54.9402 87.1311C52.8606 86.2697 50.971 85.0071 49.3793 83.4154C47.7876 81.8237 46.525 79.9341 45.6636 77.8544C45.0579 76.3921 44.6589 74.856 44.4754 73.2903C44.3468 72.1933 45.2542 71.2949 46.3588 71.2949L61.4998 71.2949H76.6409Z" fill="#8628B6"/>
<defs>
<linearGradient id="paint0_linear_1_90" x1="61.5" y1="0.282047" x2="61.5" y2="122.718" gradientUnits="userSpaceOnUse">
<stop stop-color="#FE5D97"/>
<stop offset="1" stop-color="#BD5EF4"/>
</linearGradient>
</defs>
</svg>
